<?xml version="1.0" standalone="no"?>
<!DOCTYPE svg PUBLIC "-//W3C//DTD SVG 20010904//EN"
 "http://www.w3.org/TR/2001/REC-SVG-20010904/DTD/svg10.dtd">
<svg version="1.0" xmlns="http://www.w3.org/2000/svg"
 width="1920.000000pt" height="600.000000pt" viewBox="0 0 1920.000000 600.000000"
 preserveAspectRatio="xMidYMid meet">

<g transform="translate(0.000000,600.000000) scale(0.100000,-0.100000)"
fill="#000000" stroke="none">
<path d="M4830 5633 c-96 -113 -180 -210 -185 -216 -6 -7 -117 -136 -246 -287
-422 -491 -514 -595 -524 -590 -6 3 -9 16 -7 30 1 14 3 102 4 195 1 160 0 175
-25 248 -30 87 -84 199 -115 237 l-20 25 -33 -70 c-18 -39 -76 -144 -129 -235
-87 -149 -147 -265 -163 -312 -10 -28 -32 -22 -123 32 -165 97 -326 159 -503
191 -161 29 -298 24 -631 -26 -265 -40 -390 -42 -495 -10 -62 18 -75 8 -51
-41 59 -124 196 -248 360 -325 47 -22 87 -43 90 -47 9 -15 -9 -29 -69 -53 -67
-27 -82 -34 -315 -159 -187 -100 -314 -156 -445 -196 -82 -26 -104 -28 -252
-29 -110 0 -163 -4 -163 -11 0 -22 64 -106 119 -155 95 -85 282 -160 459 -184
79 -10 73 -19 -58 -86 -358 -183 -629 -439 -753 -709 -60 -130 -59 -139 9
-109 26 10 74 28 108 40 128 42 377 82 389 62 3 -5 0 -34 -8 -64 -8 -30 -24
-104 -35 -165 -58 -327 -40 -550 64 -769 126 -267 351 -505 806 -855 522 -401
774 -623 898 -793 24 -31 49 -57 57 -57 8 0 15 1 15 3 0 1 14 36 31 77 117
286 183 606 182 885 -1 183 -18 322 -83 675 -16 85 -35 200 -44 255 -24 158
-26 428 -3 459 11 15 21 9 98 -67 183 -180 378 -277 628 -311 149 -21 284 -20
532 4 285 27 343 19 574 -85 131 -59 181 -70 320 -70 153 0 223 19 326 88 165
111 244 333 194 545 -44 184 -147 294 -362 387 -215 92 -320 198 -443 443 -28
55 -50 103 -50 107 0 4 -14 37 -31 73 -17 37 -41 92 -54 122 -80 188 -219 384
-359 507 -36 32 -66 66 -66 76 0 19 561 1134 722 1435 22 40 38 77 36 81 -2 5
-82 -84 -178 -196z"/>
<path d="M10071 4086 c-35 -19 -50 -54 -51 -114 0 -87 45 -142 117 -142 34 0
88 31 103 61 17 30 18 108 2 145 -24 57 -112 83 -171 50z"/>
<path d="M11395 4074 c-167 -20 -226 -36 -341 -91 -297 -144 -460 -477 -440
-903 9 -201 53 -370 127 -497 48 -82 180 -212 259 -255 36 -20 103 -49 150
-64 75 -24 104 -28 257 -32 184 -5 289 5 415 39 l78 21 0 89 c0 49 -3 89 -8
89 -4 0 -57 -11 -117 -25 -150 -34 -339 -43 -455 -22 -156 30 -284 114 -366
242 -93 146 -137 376 -114 598 28 280 155 482 360 574 165 74 400 70 614 -11
38 -15 70 -25 71 -24 9 10 86 171 83 173 -2 2 -25 13 -52 24 -128 55 -378 91
-521 75z"/>
<path d="M6653 3398 c4 -721 3 -710 69 -847 44 -90 159 -205 250 -249 123 -60
209 -75 392 -70 177 6 246 21 361 81 83 44 192 155 232 237 69 142 67 116 71
843 l3 657 -106 0 -105 0 0 -633 c0 -685 0 -689 -55 -798 -49 -95 -156 -173
-273 -198 -64 -13 -211 -14 -278 -2 -135 26 -249 103 -300 202 -52 104 -54
124 -54 802 l0 627 -105 0 -106 0 4 -652z"/>
<path d="M9070 3623 c-132 -10 -249 -63 -329 -148 -37 -39 -56 -53 -61 -44 -5
6 -14 47 -20 90 l-12 79 -84 0 -84 0 0 -675 0 -675 99 0 99 0 5 428 c5 464 9
503 64 604 33 61 80 103 153 137 50 24 66 26 180 26 117 0 129 -2 183 -28 64
-32 98 -73 125 -154 13 -41 16 -120 20 -530 l4 -483 99 0 100 0 -4 513 c-3
423 -6 521 -19 562 -50 163 -149 252 -317 285 -55 10 -152 17 -201 13z"/>
<path d="M12734 3620 c-264 -27 -442 -182 -510 -443 -38 -148 -38 -347 2 -501
44 -173 154 -312 304 -384 105 -50 163 -62 293 -62 189 0 316 50 431 170 70
72 131 184 155 283 37 156 31 383 -15 524 -35 108 -77 177 -153 254 -125 125
-301 180 -507 159z m212 -186 c114 -33 200 -122 245 -254 30 -87 39 -338 16
-447 -52 -245 -224 -370 -461 -333 -94 15 -146 39 -204 97 -92 92 -133 224
-133 428 0 194 37 326 117 414 38 43 114 88 169 102 55 13 195 10 251 -7z"/>
<path d="M15907 3619 c-117 -17 -223 -85 -308 -199 -28 -39 -53 -69 -55 -68
-1 2 -8 58 -15 126 l-12 122 -83 0 -84 0 0 -675 0 -675 99 0 99 0 4 413 c5
439 5 438 58 550 35 73 112 152 183 187 72 35 161 47 249 32 l57 -9 11 71 c6
39 13 81 16 93 3 19 -1 23 -28 27 -72 11 -136 12 -191 5z"/>
<path d="M16715 3619 c-203 -16 -356 -108 -401 -241 -21 -64 -16 -197 10 -248
27 -53 94 -118 161 -155 33 -18 130 -63 216 -99 252 -104 308 -139 341 -213
39 -89 3 -178 -93 -226 -88 -44 -212 -56 -344 -34 -105 18 -213 50 -273 81
l-32 17 0 -95 c0 -111 -5 -105 130 -147 68 -22 93 -24 270 -24 224 0 288 13
396 83 115 75 159 166 152 316 -9 185 -90 260 -425 390 -166 64 -214 88 -267
129 -97 77 -84 209 27 264 96 48 298 45 461 -7 51 -17 98 -30 103 -30 6 0 25
34 43 76 39 88 42 82 -70 118 -124 40 -269 56 -405 45z"/>
<path d="M18035 3620 c-132 -16 -233 -62 -317 -144 -139 -137 -200 -306 -200
-561 0 -158 18 -248 74 -364 71 -149 200 -254 368 -300 60 -17 103 -21 220
-21 155 0 222 11 348 56 l72 26 0 89 c0 49 -1 89 -3 89 -2 0 -35 -11 -73 -24
-159 -56 -347 -77 -462 -52 -100 21 -155 51 -217 118 -72 78 -115 195 -115
314 l0 44 466 0 467 0 -6 133 c-10 213 -50 326 -161 445 -71 75 -187 137 -276
147 -107 11 -126 12 -185 5z m232 -202 c51 -26 93 -70 124 -129 22 -45 49
-155 49 -206 l0 -33 -355 0 -355 0 6 43 c22 160 104 283 222 334 84 35 228 31
309 -9z"/>
<path d="M10030 2925 l0 -675 105 0 105 0 0 675 0 675 -105 0 -105 0 0 -675z"/>
<path d="M13780 3128 c1 -502 6 -576 49 -673 69 -155 202 -225 429 -225 186 0
309 45 402 147 27 29 50 53 53 53 2 0 10 -40 17 -90 l13 -90 83 0 84 0 0 675
0 675 -100 0 -100 0 0 -402 c-1 -449 -7 -517 -60 -624 -49 -101 -134 -155
-273 -174 -81 -12 -177 -2 -238 24 -46 19 -93 71 -121 131 -23 50 -23 52 -26
548 l-3 497 -104 0 -105 0 0 -472z"/>
</g>
</svg>
